<?xml version="1.0" standalone="no"?>
<!DOCTYPE svg PUBLIC "-//W3C//DTD SVG 20010904//EN"
 "http://www.w3.org/TR/2001/REC-SVG-20010904/DTD/svg10.dtd">
<svg version="1.0" xmlns="http://www.w3.org/2000/svg"
 width="655.000000pt" height="683.000000pt" viewBox="0 0 655.000000 683.000000"
 preserveAspectRatio="xMidYMid meet">

<g transform="translate(0.000000,683.000000) scale(0.100000,-0.100000)"
fill="#000000" stroke="none">
<path d="M2121 6615 c-24 -26 -57 -76 -74 -113 -30 -63 -32 -74 -32 -182 0
-100 3 -120 23 -157 35 -67 4 -55 -80 30 -81 81 -135 171 -144 241 -4 25 -10
46 -15 46 -15 0 -109 -124 -134 -177 -43 -90 -58 -175 -52 -298 3 -60 9 -119
12 -131 6 -18 -8 -31 -93 -87 -183 -122 -388 -327 -497 -497 -42 -65 -116
-202 -112 -206 4 -4 179 37 241 57 33 10 61 17 64 15 2 -3 -10 -25 -28 -51
-66 -95 -129 -261 -156 -407 -23 -125 -15 -333 16 -433 12 -38 25 -74 30 -78
4 -5 12 11 18 35 10 38 89 189 111 211 4 4 11 -25 14 -65 4 -41 18 -114 32
-163 56 -191 128 -326 238 -442 l70 -74 -31 -32 c-87 -90 -111 -284 -57 -467
18 -59 66 -153 96 -185 18 -20 18 -21 -16 -48 -40 -32 -38 -34 -78 74 -82 216
-159 309 -259 309 -27 0 -62 -7 -77 -15 -33 -17 -81 -70 -81 -90 0 -27 -19
-25 -53 4 -42 37 -77 51 -128 51 -98 0 -189 -93 -189 -193 0 -34 0 -35 -54
-39 -99 -8 -165 -81 -174 -193 -4 -52 -1 -70 16 -98 l20 -35 -45 -31 c-76 -54
-92 -129 -47 -219 31 -63 97 -111 238 -177 79 -37 97 -50 135 -99 62 -81 171
-178 236 -212 52 -27 57 -33 92 -114 139 -313 491 -662 702 -696 33 -5 45 -14
75 -59 42 -61 121 -130 185 -162 49 -25 114 -29 201 -13 29 6 55 9 57 7 1 -2
-3 -47 -11 -101 -7 -55 -9 -99 -4 -102 27 -17 281 -88 422 -119 259 -55 392
-68 706 -69 210 0 307 4 410 18 162 21 384 61 460 82 132 37 148 44 155 71 24
96 191 229 354 282 73 24 106 26 117 9 5 -8 2 -9 -10 -5 -72 28 -372 -138
-421 -233 -20 -39 -19 -47 4 -24 10 10 16 24 14 29 -2 6 2 2 10 -7 17 -22 45
-23 71 -3 11 8 30 15 43 15 13 0 54 16 92 35 37 19 75 35 83 35 9 0 18 3 20 8
2 4 37 18 78 31 88 28 278 139 364 212 10 8 -177 296 -325 501 -171 235 -313
369 -479 453 -101 51 -238 100 -330 119 l-65 13 55 13 c80 19 218 68 269 96
53 29 61 30 61 4 0 -59 90 -20 185 82 36 37 86 105 112 150 l48 82 6 -64 c5
-62 27 -140 39 -140 3 0 29 16 58 35 51 35 119 111 148 167 14 28 16 28 102
28 246 0 485 146 622 379 43 74 87 211 95 296 18 183 -50 381 -156 453 -24 17
-37 33 -34 42 2 8 18 54 35 103 17 48 36 123 42 166 l12 78 20 -28 c35 -48
121 -148 127 -148 10 -1 48 194 59 299 25 246 -2 510 -71 698 -24 66 -82 152
-155 232 l-57 61 39 -5 c21 -3 64 -8 94 -11 30 -3 70 -8 88 -11 42 -8 41 3 -9
77 -115 170 -289 269 -474 269 l-67 0 6 31 c11 56 -12 170 -51 249 -50 103
-158 209 -272 269 -67 35 -83 40 -76 25 51 -121 85 -303 70 -380 l-6 -36 -50
82 c-165 267 -492 465 -935 565 -193 44 -362 58 -619 52 -244 -5 -356 -20
-565 -72 -271 -69 -470 -33 -616 110 -41 41 -66 74 -76 104 -8 25 -19 46 -25
48 -5 2 -29 -17 -52 -42z m255 -293 c78 -39 165 -62 268 -69 68 -4 109 0 256
31 292 59 392 69 660 63 313 -7 492 -37 724 -121 217 -79 438 -217 507 -318
17 -25 8 -19 -37 23 -88 83 -160 132 -179 121 -13 -7 -4 -17 44 -51 33 -23 63
-46 67 -52 3 -6 -25 11 -62 36 -152 104 -361 191 -574 238 -187 41 -291 51
-530 52 -193 0 -245 -3 -365 -24 -77 -13 -144 -27 -148 -31 -5 -4 43 -13 105
-19 203 -22 443 -60 434 -68 -3 -3 -57 2 -121 12 -64 9 -118 15 -121 12 -3 -2
17 -8 43 -11 96 -13 105 -17 92 -32 -7 -9 -8 -14 -1 -14 6 0 14 5 17 10 3 6
11 10 16 10 6 0 7 -4 4 -10 -4 -6 16 -11 52 -12 44 -1 48 -2 18 -5 -75 -6
-250 -35 -332 -54 -132 -30 -536 -149 -560 -165 -20 -13 -23 -13 -23 1 0 8 6
15 14 15 8 0 17 4 20 8 3 5 -18 7 -46 4 -37 -3 -49 -2 -44 7 4 6 2 11 -4 11
-6 0 -13 -6 -16 -14 -4 -10 -31 -13 -121 -12 -63 0 -117 -2 -120 -6 -2 -5 7
-8 21 -8 14 0 28 -4 31 -10 8 -13 3 -13 -97 5 -101 17 -212 61 -284 110 -58
40 -154 137 -154 156 0 6 16 -8 34 -33 34 -44 58 -62 69 -51 3 2 -17 27 -44
55 -28 28 -55 60 -61 71 -5 11 22 -12 61 -51 121 -121 281 -181 511 -189 155
-6 260 11 425 68 66 23 156 54 199 69 l80 27 -120 13 c-149 15 -411 63 -484
88 -74 26 -150 65 -189 97 -30 26 -44 54 -18 39 6 -5 -15 18 -48 50 l-60 57
65 -49 c36 -27 92 -63 126 -80z m1211 -198 c-3 -3 -12 -4 -19 -1 -8 3 -5 6 6
6 11 1 17 -2 13 -5z m1581 -139 c-3 -3 -9 2 -12 12 -6 14 -5 15 5 6 7 -7 10
-15 7 -18z m-1550 -62 c-10 -2 -26 -2 -35 0 -10 3 -2 5 17 5 19 0 27 -2 18 -5z
m-75 -10 c-7 -2 -21 -2 -30 0 -10 3 -4 5 12 5 17 0 24 -2 18 -5z m-123 -27
c-41 -12 -106 -39 -145 -59 -78 -40 -81 -47 -8 -18 68 27 253 74 260 67 4 -3
-1 -6 -9 -6 -8 0 -86 -22 -172 -50 -164 -52 -181 -56 -171 -40 19 31 248 130
300 129 11 0 -14 -10 -55 -23z m197 8 c-3 -3 -12 -4 -19 -1 -8 3 -5 6 6 6 11
1 17 -2 13 -5z m-50 -10 c-3 -3 -12 -4 -19 -1 -8 3 -5 6 6 6 11 1 17 -2 13 -5z
m-791 -153 l29 -22 -30 15 c-16 8 -46 32 -66 53 -58 62 -67 82 -12 27 28 -27
63 -60 79 -73z m8 -80 c-5 -5 -184 83 -209 103 -11 8 32 -10 96 -42 64 -31
115 -59 113 -61z m66 33 c0 -2 -9 0 -20 6 -11 6 -20 13 -20 16 0 2 9 0 20 -6
11 -6 20 -13 20 -16z m-1270 -45 c-97 -78 -160 -132 -175 -149 -18 -20 -18
-21 0 -14 13 5 16 4 11 -4 -4 -7 -17 -12 -30 -12 -27 0 -71 -44 -61 -61 5 -7
3 -10 -6 -7 -15 5 -67 -38 -58 -47 8 -7 188 114 259 173 30 25 44 33 30 18
-43 -48 -145 -124 -255 -191 -58 -35 -105 -62 -105 -60 0 3 32 41 70 85 67 75
173 170 283 254 51 38 80 50 37 15z m2558 -86 c-10 -2 -26 -2 -35 0 -10 3 -2
5 17 5 19 0 27 -2 18 -5z m-128 -26 c-96 -29 -121 -47 -218 -160 -44 -50 -99
-110 -123 -132 -49 -47 124 158 191 225 46 46 143 89 200 89 14 0 -9 -10 -50
-22z m-838 -10 c-52 -39 -150 -169 -147 -196 1 -14 7 -27 13 -29 6 -2 74 42
151 97 77 56 143 101 147 101 4 0 -59 -50 -139 -110 -114 -86 -158 -113 -197
-122 -27 -6 -53 -9 -56 -6 -7 8 122 176 184 241 26 26 53 47 61 47 8 0 1 -10
-17 -23z m88 8 c33 -19 21 -19 -21 0 -19 8 -27 14 -19 14 8 0 26 -6 40 -14z
m265 -135 c-39 -39 -97 -91 -130 -117 -46 -35 -34 -20 55 66 84 82 108 111 90
107 -14 -3 -59 -6 -101 -6 l-76 0 -22 -47 c-12 -27 -31 -75 -41 -108 -13 -39
-18 -48 -15 -25 3 19 19 70 37 112 l31 77 66 4 c36 2 91 4 121 5 l54 2 -69
-70z m510 4 c-44 -39 -107 -85 -88 -64 17 18 117 99 123 99 3 0 -13 -16 -35
-35z m-927 -20 c3 -27 2 -28 -11 -10 -8 12 -19 16 -26 11 -10 -6 -11 -3 -1 14
15 29 34 22 38 -15z m1061 -55 c-14 -94 -30 -155 -23 -89 8 70 26 171 30 167
3 -2 -1 -37 -7 -78z m173 -6 c-16 -21 -40 -47 -53 -58 -13 -11 -1 6 26 38 55
64 73 77 27 20z m-522 13 c0 -2 -8 -10 -17 -17 -16 -13 -17 -12 -4 4 13 16 21
21 21 13z m105 -16 c-7 -12 -65 -43 -65 -35 0 5 61 45 68 45 2 0 0 -5 -3 -10z
m-86 -54 c-9 -8 -10 -7 -5 7 3 10 7 24 7 30 1 7 3 4 6 -7 3 -10 -1 -23 -8 -30z
m1326 -76 c36 -71 59 -135 69 -190 4 -19 -12 13 -34 71 -41 109 -88 204 -97
195 -3 -3 0 -19 6 -37 6 -18 10 -48 10 -68 -1 -33 -2 -32 -9 12 -5 27 -13 62
-19 78 -7 22 -7 28 1 23 8 -5 9 -1 5 12 -14 38 35 -30 68 -96z m404 37 c105
-80 188 -210 232 -359 15 -53 23 -112 26 -214 7 -193 -5 -212 -42 -63 -72 290
-168 503 -289 639 -29 33 -29 33 -3 10 76 -66 175 -233 231 -389 15 -40 40
-126 56 -190 16 -64 31 -125 34 -136 7 -27 -3 212 -10 253 -4 21 -12 32 -23
32 -14 0 -14 -2 -1 -10 13 -9 13 -11 0 -20 -10 -6 -11 -10 -3 -10 7 0 10 -7 6
-16 -4 -11 -19 18 -44 82 -55 148 -64 169 -69 174 -3 3 -16 24 -28 48 -23 41
-24 80 -2 67 6 -4 7 -11 4 -17 -4 -7 -2 -8 5 -4 22 14 -51 92 -169 179 -25 18
-25 18 5 1 17 -9 54 -35 84 -57z m-4137 -32 c-115 -123 -175 -239 -228 -440
-20 -77 -32 -110 -29 -80 15 130 83 304 165 425 47 68 138 170 152 170 5 0
-22 -34 -60 -75z m1898 41 c0 -2 -8 -10 -17 -17 -16 -13 -17 -12 -4 4 13 16
21 21 21 13z m920 -20 c0 -2 -8 -10 -17 -17 -16 -13 -17 -12 -4 4 13 16 21 21
21 13z m732 -48 c65 -23 116 -44 113 -46 -4 -4 -236 75 -244 84 -11 11 23 1
131 -38z m-573 -66 c72 -188 160 -344 300 -535 50 -68 102 -148 116 -179 54
-119 92 -392 82 -588 -7 -123 -39 -384 -57 -464 -6 -27 -8 -51 -5 -54 10 -10
120 72 191 143 39 38 96 109 127 157 63 98 99 126 203 163 89 31 188 34 243 5
188 -96 225 -404 78 -648 -120 -201 -398 -341 -599 -304 -72 13 -117 45 -165
115 l-32 47 -60 -88 c-165 -241 -434 -415 -851 -550 -318 -103 -549 -122 -810
-68 -527 108 -814 236 -1017 449 -139 147 -200 299 -191 479 3 70 10 103 26
135 14 26 22 60 22 90 0 55 -28 249 -64 438 -29 151 -46 322 -46 453 l0 92 58
-45 57 -45 6 122 c4 96 10 134 28 172 50 112 167 243 305 341 65 46 307 175
328 175 20 0 -80 -153 -164 -251 l-47 -57 27 -11 c43 -18 163 -41 212 -41 39
0 115 14 200 36 24 6 24 6 -5 -21 l-30 -26 80 5 c44 2 123 16 176 29 115 30
335 129 438 197 41 28 76 48 79 46 2 -3 -27 -66 -66 -140 -81 -158 -86 -150
73 -117 245 52 545 221 667 376 24 29 45 54 48 54 3 1 20 -38 39 -87z m365
-217 c3 -27 4 -45 1 -40 -8 18 -65 312 -64 331 1 25 56 -228 63 -291z m49 208
c23 -63 57 -213 57 -249 0 -9 -11 -14 -32 -13 -30 2 -30 2 -6 6 24 4 26 7 21
41 -8 62 -44 204 -65 257 -11 28 -15 46 -10 40 6 -5 21 -42 35 -82z m63 7 c14
-40 23 -74 21 -77 -3 -2 -15 26 -27 64 -13 37 -25 75 -28 83 -3 8 -2 12 1 9 4
-3 19 -39 33 -79z m683 -100 c0 -10 -3 -8 -9 5 -12 27 -12 43 0 25 5 -8 9 -22
9 -30z m-4226 -57 c-20 -38 -40 -72 -46 -78 -11 -12 39 90 61 123 28 43 21 21
-15 -45z m4234 15 c-3 -8 -6 -5 -6 6 -1 11 2 17 5 13 3 -3 4 -12 1 -19z
m-4314 -163 c-9 -19 -18 -33 -21 -31 -4 5 26 66 33 66 3 0 -3 -16 -12 -35z
m530 -1185 c35 -32 61 -67 75 -100 11 -27 19 -50 16 -50 -3 0 -22 9 -44 20
-22 11 -57 20 -79 20 -57 0 -71 -24 -71 -122 0 -119 45 -222 134 -307 42 -40
48 -67 14 -57 -13 4 -49 12 -81 17 -50 10 -62 17 -92 53 -130 159 -138 446
-15 550 48 40 79 34 143 -24z m-501 -347 c30 -27 62 -96 107 -231 90 -275 131
-367 131 -299 1 56 83 181 144 218 44 27 110 25 136 -3 28 -30 25 -68 -9 -147
-17 -37 -35 -98 -41 -137 -26 -168 -69 -276 -131 -328 -35 -29 -34 -30 10 -15
31 11 32 10 154 -108 127 -123 239 -213 343 -276 73 -44 88 -73 103 -195 12
-95 1 -224 -29 -332 -32 -113 -38 -120 -113 -120 -293 1 -660 282 -838 643
-26 54 -46 104 -43 111 3 9 -8 15 -36 20 -59 9 -154 60 -201 107 -23 23 -54
69 -70 103 l-29 62 -92 38 c-233 97 -319 171 -288 246 23 56 44 56 170 2 63
-27 136 -60 162 -73 26 -12 51 -19 55 -15 9 9 -3 19 -125 107 -46 33 -104 79
-129 102 -50 46 -87 114 -77 144 19 58 30 75 56 89 55 28 82 12 234 -137 138
-137 141 -139 159 -119 17 19 16 21 -32 77 -103 119 -183 265 -183 334 0 61
45 99 116 99 56 0 108 -62 192 -228 38 -75 71 -143 73 -151 7 -20 49 -4 49 19
0 10 -14 74 -30 142 -17 68 -33 146 -36 175 -6 47 -4 54 20 78 23 23 33 26 63
22 20 -4 44 -14 55 -24z m767 -654 c84 -83 254 -200 376 -259 44 -21 150 -64
235 -96 85 -32 159 -61 163 -65 21 -17 -206 -34 -429 -31 -138 2 -255 -1 -290
-7 -55 -10 -60 -10 -93 14 -20 14 -73 60 -118 103 l-83 77 20 70 c17 58 70
341 70 371 0 5 17 -16 37 -46 20 -30 71 -89 112 -131z m1221 -431 c0 -38 -5
-34 -13 10 -4 21 -3 31 3 27 6 -3 10 -20 10 -37z m580 -96 c-22 -84 -168 -175
-324 -203 -136 -23 -254 14 -297 95 l-22 42 26 55 c15 30 24 45 22 33 -8 -32
116 -87 207 -92 89 -6 152 15 286 94 104 62 107 63 110 39 2 -13 -2 -41 -8
-63z m-1073 -21 c-10 -4 -17 -11 -16 -16 4 -17 -100 -63 -157 -71 -30 -3 -94
-3 -142 2 l-87 8 55 7 c31 3 42 6 25 7 -17 1 -35 6 -41 12 -5 5 -43 14 -84 21
-41 6 -76 12 -78 14 -1 1 82 3 185 4 104 2 217 6 253 10 36 5 74 9 85 9 18 1
18 0 2 -7z m1538 -46 c36 -13 103 -44 148 -67 138 -71 279 -229 431 -481 50
-83 58 -114 13 -49 -27 38 -67 54 -67 26 0 -22 -21 -17 -52 13 -15 15 -28 22
-28 16 0 -6 4 -13 8 -15 11 -4 55 -78 50 -84 -3 -2 -47 58 -98 134 -187 275
-266 358 -423 443 -56 30 -75 44 -65 50 7 5 27 7 43 4 32 -5 28 -3 -37 24 -53
22 15 10 77 -14z m-279 -414 c8 -35 13 -66 10 -68 -9 -9 -26 65 -30 126 -2 36
-2 53 1 36 2 -16 11 -59 19 -94z m911 -648 c-3 -10 -5 -4 -5 12 0 17 2 24 5
18 2 -7 2 -21 0 -30z"/>
<path d="M2367 6299 c7 -7 15 -10 18 -7 3 3 -2 9 -12 12 -14 6 -15 5 -6 -5z"/>
<path d="M3053 6183 c9 -2 25 -2 35 0 9 3 1 5 -18 5 -19 0 -27 -2 -17 -5z"/>
<path d="M4340 6180 c12 -9 8 -10 -20 -6 -28 5 -31 3 -17 -5 10 -6 28 -8 40
-5 25 6 52 -7 44 -21 -6 -9 87 -58 123 -65 8 -2 20 -9 26 -17 8 -10 16 -11 28
-4 16 9 16 11 -6 25 -66 43 -261 131 -218 98z m155 -72 c14 -6 25 -15 25 -20
0 -5 -13 -2 -30 7 -45 23 -41 34 5 13z"/>
<path d="M3155 6170 c28 -5 66 -8 85 -8 28 1 25 2 -15 8 -27 5 -66 8 -85 8
-28 -1 -25 -2 15 -8z"/>
<path d="M3230 6098 c0 -9 7 -19 16 -22 25 -10 27 -1 4 19 -17 15 -20 16 -20
3z"/>
<path d="M3335 6094 l-30 -14 35 6 c19 3 45 6 57 7 12 0 20 3 17 6 -11 11 -51
9 -79 -5z"/>
<path d="M3149 6087 c17 -17 14 -27 -11 -37 -17 -7 -13 -8 17 -3 55 9 95 21
72 22 -12 1 -16 6 -11 14 4 6 4 9 0 6 -4 -4 -23 -3 -43 1 -26 6 -33 6 -24 -3z
m46 -17 c3 -5 1 -10 -4 -10 -6 0 -11 5 -11 10 0 6 2 10 4 10 3 0 8 -4 11 -10z"/>
<path d="M1935 6050 c-3 -5 -4 -11 -1 -11 3 -1 11 -3 16 -4 6 -1 15 -3 21 -4
5 0 8 -5 4 -10 -3 -5 -1 -12 5 -16 5 -3 10 -1 10 5 0 6 6 8 13 5 17 -9 -24 24
-45 36 -11 6 -19 5 -23 -1z"/>
<path d="M2248 5933 c7 -3 16 -2 19 1 4 3 -2 6 -13 5 -11 0 -14 -3 -6 -6z"/>
<path d="M2308 5923 c6 -2 18 -2 25 0 6 3 1 5 -13 5 -14 0 -19 -2 -12 -5z"/>
<path d="M2518 5923 c6 -2 18 -2 25 0 6 3 1 5 -13 5 -14 0 -19 -2 -12 -5z"/>
<path d="M2377 5913 c18 -2 50 -2 70 0 21 2 7 4 -32 4 -38 0 -55 -2 -38 -4z"/>
<path d="M4006 4718 c-22 -6 -57 -29 -83 -53 -40 -38 -44 -47 -41 -81 l3 -39
40 5 c22 3 99 5 170 5 l130 0 85 -41 c47 -23 122 -69 168 -102 92 -70 98 -66
61 34 -29 77 -127 180 -217 227 -104 54 -219 70 -316 45z"/>
<path d="M2465 4687 c-151 -38 -262 -157 -279 -299 -4 -32 -4 -58 -1 -58 4 0
39 29 77 65 44 40 100 80 146 103 75 36 78 37 192 37 l115 0 3 25 c4 35 -36
91 -78 112 -49 23 -117 29 -175 15z"/>
<path d="M4027 4269 c-136 -32 -247 -140 -303 -295 -35 -94 -29 -107 11 -28
87 175 257 266 435 235 182 -33 318 -161 376 -356 21 -70 24 -234 5 -279 -23
-55 -1 -39 24 19 125 281 -42 622 -342 700 -62 16 -147 18 -206 4z"/>
<path d="M2429 4207 c-112 -47 -186 -117 -239 -226 -63 -129 -67 -288 -10
-424 17 -42 40 -87 51 -100 17 -20 17 -17 -3 33 -26 69 -35 221 -18 303 29
144 138 282 257 327 114 44 239 23 331 -54 44 -38 40 -49 -10 -26 -63 29 -168
27 -233 -4 -149 -70 -222 -271 -167 -452 60 -194 258 -306 417 -235 59 26 100
71 139 151 29 61 31 72 31 175 -1 127 -17 191 -76 305 -84 163 -193 242 -339
248 -60 2 -86 -2 -131 -21z m371 -267 c30 -30 27 -85 -5 -106 -62 -41 -142 58
-89 110 22 22 70 20 94 -4z"/>
<path d="M3970 4091 c-78 -25 -151 -92 -196 -181 -27 -51 -29 -63 -29 -175 0
-109 2 -125 27 -177 102 -219 342 -266 509 -99 79 79 103 144 104 277 0 96 -2
103 -38 177 -39 78 -84 125 -157 163 -39 19 -177 29 -220 15z m221 -120 c33
-33 35 -50 15 -90 -15 -29 -53 -51 -87 -51 -32 0 -79 53 -79 90 0 75 94 107
151 51z"/>
<path d="M5395 3576 c-114 -54 -313 -246 -255 -246 16 0 12 -136 -5 -177 -9
-20 -31 -55 -50 -78 l-34 -43 52 -5 c114 -11 235 29 295 97 67 76 80 220 28
311 -31 56 -26 60 85 60 62 0 81 -4 98 -19 21 -19 21 -19 21 0 -1 31 -36 100
-61 118 -37 25 -96 19 -174 -18z"/>
<path d="M3171 3503 c-50 -25 -86 -86 -85 -144 3 -91 69 -140 182 -138 l57 2
-71 7 c-39 4 -80 13 -92 19 -91 49 -80 194 18 243 40 21 93 22 133 5 26 -11
23 -12 -37 -12 -55 0 -68 -4 -91 -25 -15 -14 -31 -34 -37 -45 -6 -12 0 -8 14
8 32 38 89 56 160 49 32 -2 58 -2 58 2 0 4 -19 16 -42 26 -53 24 -122 25 -167
3z"/>
<path d="M3248 3363 c7 -3 16 -2 19 1 4 3 -2 6 -13 5 -11 0 -14 -3 -6 -6z"/>
<path d="M3327 3361 c29 -4 62 -15 75 -26 13 -11 11 -8 -4 8 -23 22 -36 27
-76 26 l-47 -2 52 -6z"/>
<path d="M3208 3353 c7 -3 16 -2 19 1 4 3 -2 6 -13 5 -11 0 -14 -3 -6 -6z"/>
<path d="M3768 3170 c-42 -16 -129 -41 -195 -56 -108 -26 -135 -28 -328 -28
-143 -1 -233 4 -283 13 -87 17 -121 9 -135 -32 -11 -35 -3 -45 21 -23 18 16
20 14 35 -47 42 -171 130 -333 230 -423 199 -180 480 -162 680 42 88 90 168
290 184 458 6 68 10 75 31 54 26 -26 21 3 -6 33 -27 30 -35 33 -93 35 -50 2
-81 -4 -141 -26z m76 -42 c-19 -62 -87 -116 -211 -168 -183 -77 -398 -79 -542
-6 -46 24 -101 76 -101 97 0 5 78 9 185 9 207 0 341 15 515 59 148 37 164 38
154 9z m-164 -364 c-35 -7 -199 -9 -187 -2 6 4 55 7 107 7 52 -1 88 -3 80 -5z
m47 -10 c-3 -3 -12 -4 -19 -1 -8 3 -5 6 6 6 11 1 17 -2 13 -5z m-287 -25 c-19
-12 -43 -28 -52 -37 -10 -8 -18 -12 -18 -9 0 10 81 67 94 67 6 0 -5 -10 -24
-21z m-80 -63 c0 -2 -8 -10 -17 -17 -16 -13 -17 -12 -4 4 13 16 21 21 21 13z
m355 -56 c-19 -21 -116 -80 -131 -80 -5 0 21 18 58 40 37 23 70 45 73 50 3 6
9 10 12 10 3 0 -2 -9 -12 -20z m-237 -107 c-16 -2 -40 -2 -55 0 -16 2 -3 4 27
4 30 0 43 -2 28 -4z"/>
<path d="M1368 2173 c7 -3 16 -2 19 1 4 3 -2 6 -13 5 -11 0 -14 -3 -6 -6z"/>
<path d="M2728 2033 c7 -3 16 -2 19 1 4 3 -2 6 -13 5 -11 0 -14 -3 -6 -6z"/>
<path d="M4445 1927 c23 -16 55 -28 55 -22 0 6 -56 35 -67 35 -4 0 1 -6 12
-13z"/>
<path d="M6022 4615 c0 -16 2 -22 5 -12 2 9 2 23 0 30 -3 6 -5 -1 -5 -18z"/>
</g>
</svg>
